<mxfile host="app.diagrams.net" modified="2024-07-22T22:30:30.270Z" agent="Mozilla/5.0 (X11; Linux x86_64) AppleWebKit/537.36 (KHTML, like Gecko) Chrome/126.0.0.0 Safari/537.36" etag="ThogmkNp0ra8RFsfjr8k" version="24.7.1" type="device">
  <diagram name="Page-1" id="qRPVuou1H1Y0Zno1p6kB">
    <mxGraphModel dx="902" dy="689" grid="1" gridSize="10" guides="1" tooltips="1" connect="1" arrows="1" fold="1" page="1" pageScale="1" pageWidth="850" pageHeight="1100" math="0" shadow="0">
      <root>
        <mxCell id="0" />
        <mxCell id="1" parent="0" />
        <mxCell id="7mSWLYKNfLzSQgPV6mpU-14" style="edgeStyle=orthogonalEdgeStyle;rounded=0;orthogonalLoop=1;jettySize=auto;html=1;entryX=1;entryY=0.25;entryDx=0;entryDy=0;exitX=1;exitY=0.5;exitDx=0;exitDy=0;" edge="1" parent="1" source="7mSWLYKNfLzSQgPV6mpU-1" target="7mSWLYKNfLzSQgPV6mpU-2">
          <mxGeometry relative="1" as="geometry" />
        </mxCell>
        <mxCell id="7mSWLYKNfLzSQgPV6mpU-1" value="Método donde ocurre el error" style="rounded=1;whiteSpace=wrap;html=1;shadow=1;" vertex="1" parent="1">
          <mxGeometry x="298" y="80" width="300" height="40" as="geometry" />
        </mxCell>
        <mxCell id="7mSWLYKNfLzSQgPV6mpU-2" value="Método sin manejo de la exception" style="rounded=1;whiteSpace=wrap;html=1;shadow=1;" vertex="1" parent="1">
          <mxGeometry x="298" y="159" width="300" height="40" as="geometry" />
        </mxCell>
        <mxCell id="7mSWLYKNfLzSQgPV6mpU-3" value="Método con manejo de la exception" style="rounded=1;whiteSpace=wrap;html=1;shadow=1;" vertex="1" parent="1">
          <mxGeometry x="298" y="246" width="300" height="40" as="geometry" />
        </mxCell>
        <mxCell id="7mSWLYKNfLzSQgPV6mpU-4" value="main" style="rounded=1;whiteSpace=wrap;html=1;shadow=1;" vertex="1" parent="1">
          <mxGeometry x="298" y="323" width="300" height="40" as="geometry" />
        </mxCell>
        <mxCell id="7mSWLYKNfLzSQgPV6mpU-5" value="Throws la excepción" style="text;html=1;align=center;verticalAlign=middle;whiteSpace=wrap;rounded=0;" vertex="1" parent="1">
          <mxGeometry x="120" y="85" width="130" height="30" as="geometry" />
        </mxCell>
        <mxCell id="7mSWLYKNfLzSQgPV6mpU-6" value="Pasa la excepción" style="text;html=1;align=center;verticalAlign=middle;whiteSpace=wrap;rounded=0;" vertex="1" parent="1">
          <mxGeometry x="136" y="162" width="120" height="30" as="geometry" />
        </mxCell>
        <mxCell id="7mSWLYKNfLzSQgPV6mpU-7" value="Captuta la excepción" style="text;html=1;align=center;verticalAlign=middle;whiteSpace=wrap;rounded=0;" vertex="1" parent="1">
          <mxGeometry x="125" y="247" width="130" height="30" as="geometry" />
        </mxCell>
        <mxCell id="7mSWLYKNfLzSQgPV6mpU-11" value="" style="endArrow=none;html=1;rounded=0;" edge="1" parent="1">
          <mxGeometry width="50" height="50" relative="1" as="geometry">
            <mxPoint x="250" y="100" as="sourcePoint" />
            <mxPoint x="290" y="100" as="targetPoint" />
          </mxGeometry>
        </mxCell>
        <mxCell id="7mSWLYKNfLzSQgPV6mpU-12" value="" style="endArrow=none;html=1;rounded=0;" edge="1" parent="1">
          <mxGeometry width="50" height="50" relative="1" as="geometry">
            <mxPoint x="251" y="177" as="sourcePoint" />
            <mxPoint x="291" y="177" as="targetPoint" />
          </mxGeometry>
        </mxCell>
        <mxCell id="7mSWLYKNfLzSQgPV6mpU-13" value="" style="endArrow=none;html=1;rounded=0;" edge="1" parent="1">
          <mxGeometry width="50" height="50" relative="1" as="geometry">
            <mxPoint x="252" y="261" as="sourcePoint" />
            <mxPoint x="292" y="261" as="targetPoint" />
          </mxGeometry>
        </mxCell>
        <mxCell id="7mSWLYKNfLzSQgPV6mpU-15" style="edgeStyle=orthogonalEdgeStyle;rounded=0;orthogonalLoop=1;jettySize=auto;html=1;entryX=1;entryY=0.25;entryDx=0;entryDy=0;exitX=1;exitY=0.75;exitDx=0;exitDy=0;" edge="1" parent="1" source="7mSWLYKNfLzSQgPV6mpU-2" target="7mSWLYKNfLzSQgPV6mpU-3">
          <mxGeometry relative="1" as="geometry">
            <mxPoint x="618" y="191" as="sourcePoint" />
            <mxPoint x="618" y="260" as="targetPoint" />
          </mxGeometry>
        </mxCell>
        <mxCell id="7mSWLYKNfLzSQgPV6mpU-16" value="Busca un manejador apropiado" style="text;html=1;align=center;verticalAlign=middle;whiteSpace=wrap;rounded=0;" vertex="1" parent="1">
          <mxGeometry x="630" y="210" width="130" height="30" as="geometry" />
        </mxCell>
        <mxCell id="7mSWLYKNfLzSQgPV6mpU-18" value="Busca un manejador apropiado" style="text;html=1;align=center;verticalAlign=middle;whiteSpace=wrap;rounded=0;" vertex="1" parent="1">
          <mxGeometry x="629" y="130" width="130" height="30" as="geometry" />
        </mxCell>
      </root>
    </mxGraphModel>
  </diagram>
</mxfile>
